# xmcd
#
# Track frame offsets: 
#        150
#        45584
#        87855
#        109054
#        136346
#
# Disc length: 2208 seconds
#
# Revision: 0
# Processed by: cddbd v1.5.2PL0 Copyright (c) Steve Scherf et al.
# Submitted via: ExactAudioCopy v0.99pb5
#
DISCID=38089e05
DTITLE=The Allman Brothers Band - 03-10-10 Beacon Theater (Disc3)
DYEAR=2009
DGENRE=Blues
TTITLE0=Wasted Words
TTITLE1=No One To Run With
TTITLE2=Crowd Noise
TTITLE3=Onr Way Out Jam (LosBros Version)
TTITLE4=One Way Out
EXTD=
EXTT0=
EXTT1=
EXTT2=
EXTT3=
EXTT4=
PLAYORDER=
